<?xml version="1.0" encoding="utf-8"?>
<!-- Generator: Adobe Illustrator 22.0.0, SVG Export Plug-In . SVG Version: 6.00 Build 0)  -->
<svg version="1.1" id="Layer_1" xmlns="http://www.w3.org/2000/svg" xmlns:xlink="http://www.w3.org/1999/xlink" x="0px" y="0px"
	 viewBox="0 0 338.3 86.4" style="enable-background:new 0 0 338.3 86.4;" xml:space="preserve">
<style type="text/css">
	.st0{fill:#3ADAA0;}
</style>
<g>
	<g>
		<path class="st0" d="M40.1,17.7H19.2v11.8h19.2v11.9H19.2v23.9H5.7V5.8h34.4V17.7z"/>
	</g>
	<g>
		<path class="st0" d="M59.3,48.5c0,5.7,4.8,7.6,8,7.6c4.1,0,5.9-0.8,9-4.1l9.2,4.6c-4.2,7-11,9.7-19.2,9.7
			C55.2,66.3,46,57.5,46,46.8c0-10.8,9.2-19.6,20.3-19.6c11.2,0,19.8,6.6,19.8,19.6c0,0.5,0,1.3-0.1,1.7H59.3z M73.7,41.4
			c-0.6-3.9-3.2-6-7-6c-4.4,0-6.8,2.6-7.1,6H73.7z"/>
	</g>
	<g>
		<path class="st0" d="M94.3,3.3h12.8v62H94.3V3.3z"/>
	</g>
	<g>
		<path class="st0" d="M117.9,3.3h12.8v62h-12.8V3.3z"/>
	</g>
	<g>
		<path class="st0" d="M157.2,27.2c5,0,9.1,1.7,12.1,4.6v-3.5H182v37h-12.6v-4.2h-0.1c-2.7,3-7.1,5.3-12.1,5.3
			c-10.8,0-18.4-8.7-18.4-19.5S146.3,27.2,157.2,27.2z M161,55.4c5,0,8.6-3.6,8.6-8.6c0-5.1-3.8-8.7-8.6-8.7c-4.8,0-8.6,3.6-8.6,8.7
			C152.3,51.8,155.8,55.4,161,55.4z"/>
	</g>
	<g>
		<path class="st0" d="M192.8,3.3h12.8v28.9h0.1c2.9-2.9,6.6-5,10.6-5c6.8,0,16.2,3.4,16.2,13.7v24.4h-12.8V44.3
			c0-3.7-2.5-7.2-6.6-7.2c-3.8,0-7.6,3.5-7.6,7.2v20.9h-12.8V3.3z"/>
	</g>
	<g>
		<path class="st0" d="M244.8,14.5h12.8v13.8h7.8V38h-7.8v11.7c0,3.5,0.9,5.1,2.9,5.1c1.7,0,3.2-1.2,3.2-1.2l3.2,10.3
			c0,0-4.1,2.3-9.4,2.3c-10.2,0-12.6-7.6-12.6-14.1V38h-5.3v-9.7h5.3V14.5z"/>
	</g>
	<g>
		<path class="st0" d="M316,28.3l-29,55.7h-14.7L285,59.5l-17.5-31.2h14.7l10.3,19l8.8-19H316z"/>
	</g>
</g>
<circle class="st0" cx="325.4" cy="58.6" r="6.5"/>
</svg>
